#N canvas 170 52 1181 810 12;
#X obj 54 -9 inlet;
#X obj 222 819 outlet~;
#X obj 54 49 unpack;
#X obj 54 77 swap, f 6;
#N canvas 789 435 450 300 calc-time 0;
#X obj 29 29 inlet;
#X obj 33 221 outlet;
#X obj 29 161 pack 0 0;
#X obj 138 83 / 44.1;
#X obj 250 196 outlet;
#X obj 233 62 t b a;
#X obj 187 162 t a a;
#X obj 188 120 / 2, f 9;
#X obj 29 77 - 2;
#X obj 114 226 outlet;
#X obj 29 53 t a a, f 16;
#X obj 138 107 t a a;
#X obj 70 128 t b a;
#X obj 235 36 r \$1-samp-pitch;
#X connect 0 0 10 0;
#X connect 2 0 1 0;
#X connect 3 0 11 0;
#X connect 5 0 7 0;
#X connect 5 1 7 1;
#X connect 6 0 12 0;
#X connect 6 1 4 0;
#X connect 7 0 6 0;
#X connect 8 0 2 0;
#X connect 10 0 8 0;
#X connect 10 1 3 0;
#X connect 11 0 9 0;
#X connect 11 1 7 0;
#X connect 12 0 2 0;
#X connect 12 1 2 1;
#X connect 13 0 5 0;
#X restore 188 404 pd calc-time;
#X obj 301 374 list prepend set;
#X obj 301 398 list trim;
#X text 345 321 repoint tabread;
#X obj 188 372 array size;
#X obj 269 321 t a a;
#X obj 88 652 +~ 1;
#X obj 89 618 vline~;
#X msg 120 577 0 0;
#X obj 57 376 sel 0;
#X obj 89 482 list store;
#X obj 347 691 vline~;
#X obj 222 788 *~;
#X obj 347 725 *~;
#X obj 474 594 i 1;
#X obj 474 624 pack 1 5;
#X obj 347 591 i 0;
#X obj 420 477 t b a;
#X obj 339 435 - 15;
#N canvas 4 49 450 301 loop 0;
#X obj 41 27 inlet;
#X obj 245 36 inlet;
#X obj 84 179 delay 5, f 21;
#X obj 245 60 max 1;
#X msg 115 140 stop;
#X obj 84 90 t b b;
#X obj 41 51 sel 0 1;
#X obj 90 217 outlet;
#X connect 0 0 6 0;
#X connect 1 0 3 0;
#X connect 2 0 7 0;
#X connect 3 0 2 1;
#X connect 4 0 2 0;
#X connect 5 0 2 0;
#X connect 5 1 4 0;
#X connect 6 0 4 0;
#X connect 6 1 5 0;
#X restore 208 578 pd loop;
#X obj 89 512 t a b b, f 13;
#X obj 208 546 i 1;
#X obj 44 458 i 0;
#X obj 188 189 t b a, f 22;
#X obj 406 506 * 1, f 7;
#X obj 406 530 max 10;
#X obj 739 785 switch~;
#X obj 710 571 i 1;
#X obj 498 740 del;
#X obj 406 554 t a a;
#X obj 347 545 t b b b;
#X msg 558 687 stop;
#X obj 498 681 t b b;
#X obj 498 764 i 0;
#X obj 629 538 t b b;
#X obj 420 429 r \$1-samp-dec;
#X obj 530 428 r \$1-samp-att;
#X obj 339 223 makefilename bank1-\$1-%d;
#X obj 88 683 tabread4~ bank1-\$1-1;
#X text 139 709 headroom;
#X obj 88 707 *~ 0.8;
#X obj 88 731 *~, f 21;
#X text 247 730 velocity;
#X obj 89 432 t b b b a, f 13;
#X obj 247 639 / 127;
#X obj 60 20 t a a;
#X obj 347 621 pack 0 10 10;
#X text 340 650 CUT!;
#X connect 0 0 49 0;
#X connect 2 0 3 0;
#X connect 2 1 3 1;
#X connect 3 0 13 0;
#X connect 3 1 27 0;
#X connect 4 0 14 1;
#X connect 4 1 23 1;
#X connect 4 2 22 0;
#X connect 5 0 6 0;
#X connect 6 0 42 0;
#X connect 8 0 4 0;
#X connect 9 0 8 1;
#X connect 9 1 5 0;
#X connect 10 0 42 0;
#X connect 11 0 10 0;
#X connect 12 0 11 0;
#X connect 13 0 26 0;
#X connect 13 1 47 0;
#X connect 14 0 24 0;
#X connect 15 0 17 0;
#X connect 15 0 17 1;
#X connect 16 0 1 0;
#X connect 17 0 16 1;
#X connect 18 0 19 0;
#X connect 19 0 15 0;
#X connect 20 0 50 0;
#X connect 21 0 28 0;
#X connect 21 1 28 1;
#X connect 22 0 28 0;
#X connect 24 0 11 0;
#X connect 24 1 12 0;
#X connect 24 2 25 0;
#X connect 25 0 23 0;
#X connect 26 0 23 0;
#X connect 27 0 8 0;
#X connect 27 1 41 0;
#X connect 28 0 29 0;
#X connect 29 0 33 0;
#X connect 31 0 30 0;
#X connect 32 0 37 0;
#X connect 33 0 50 1;
#X connect 33 1 32 1;
#X connect 34 0 20 0;
#X connect 34 1 18 0;
#X connect 34 2 36 0;
#X connect 35 0 32 0;
#X connect 36 0 32 0;
#X connect 36 1 35 0;
#X connect 37 0 30 0;
#X connect 38 0 35 0;
#X connect 38 1 31 0;
#X connect 39 0 21 0;
#X connect 40 0 19 1;
#X connect 40 0 50 2;
#X connect 41 0 9 0;
#X connect 42 0 44 0;
#X connect 44 0 45 0;
#X connect 45 0 16 0;
#X connect 47 0 14 0;
#X connect 47 1 34 0;
#X connect 47 2 38 0;
#X connect 47 3 48 0;
#X connect 48 0 45 1;
#X connect 49 0 2 0;
